<svg xmlns="http://www.w3.org/2000/svg" xmlns:xlink="http://www.w3.org/1999/xlink" width="500" zoomAndPan="magnify" viewBox="0 0 375 374.999991" height="500" preserveAspectRatio="xMidYMid meet" version="1.0"><defs><g/></defs><g fill="#000000" fill-opacity="0.4"><g transform="translate(21.676791, 209.210304)"><g><path d="M 77.828125 0 L 58.125 0 L 53.765625 -7.59375 L 24.546875 -7.59375 L 20.1875 0 L 0.484375 0 L 30.125 -46.3125 L 48.1875 -46.3125 Z M 47.21875 -19.046875 L 39.171875 -33.109375 L 31.09375 -19.046875 Z M 47.21875 -19.046875 "/></g></g></g><g fill="#000000" fill-opacity="0.4"><g transform="translate(99.98847, 209.210304)"><g><path d="M 24.609375 0 L 5.171875 0 L 5.171875 -46.34375 L 24.609375 -46.34375 Z M 24.609375 0 "/></g></g></g><g fill="#000000" fill-opacity="0.4"><g transform="translate(129.763051, 209.210304)"><g/></g></g><g fill="#000000" fill-opacity="0.4"><g transform="translate(146.168134, 209.210304)"><g><path d="M 68.46875 0 L 49.03125 0 L 49.03125 -18.703125 L 24.609375 -18.703125 L 24.609375 0 L 5.171875 0 L 5.171875 -46.34375 L 24.609375 -46.34375 L 24.609375 -27.609375 L 49.03125 -27.609375 L 49.03125 -46.34375 L 68.46875 -46.34375 Z M 68.46875 0 "/></g></g></g><g fill="#000000" fill-opacity="0.4"><g transform="translate(219.797249, 209.210304)"><g><path d="M 32.578125 1 C 21.273438 1 13.320312 -1.347656 8.71875 -6.046875 C 4.84375 -9.984375 2.90625 -15.675781 2.90625 -23.125 L 2.90625 -46.3125 L 22.34375 -46.3125 L 22.34375 -23.125 C 22.34375 -19.894531 22.894531 -17.34375 24 -15.46875 C 25.570312 -12.78125 28.429688 -11.4375 32.578125 -11.4375 C 36.785156 -11.4375 39.660156 -12.78125 41.203125 -15.46875 C 42.304688 -17.40625 42.859375 -19.957031 42.859375 -23.125 L 42.859375 -46.3125 L 62.296875 -46.3125 L 62.296875 -22.859375 C 62.296875 -15.585938 60.367188 -9.984375 56.515625 -6.046875 C 51.890625 -1.347656 43.910156 1 32.578125 1 Z M 32.578125 1 "/></g></g></g><g fill="#000000" fill-opacity="0.4"><g transform="translate(284.997778, 209.210304)"><g><path d="M 38.40625 0 L 5.171875 0 L 5.171875 -46.3125 L 39.109375 -46.3125 C 45.140625 -46.3125 50.101562 -46.035156 54 -45.484375 C 57.894531 -44.941406 60.894531 -44.082031 63 -42.90625 C 65.113281 -41.726562 66.546875 -40.234375 67.296875 -38.421875 C 68.054688 -36.617188 68.4375 -34.457031 68.4375 -31.9375 C 68.375 -29.957031 67.828125 -28.316406 66.796875 -27.015625 C 65.773438 -25.710938 64.582031 -24.742188 63.21875 -24.109375 C 61.851562 -23.472656 60.648438 -23.15625 59.609375 -23.15625 C 60.628906 -23.15625 61.816406 -22.953125 63.171875 -22.546875 C 64.523438 -22.148438 65.84375 -21.578125 67.125 -20.828125 C 68.40625 -20.078125 69.46875 -19.160156 70.3125 -18.078125 C 71.164062 -17.003906 71.59375 -15.78125 71.59375 -14.40625 C 71.59375 -12.59375 71.382812 -10.929688 70.96875 -9.421875 C 70.550781 -7.921875 69.710938 -6.585938 68.453125 -5.421875 C 67.191406 -4.265625 65.332031 -3.28125 62.875 -2.46875 C 60.425781 -1.664062 57.210938 -1.050781 53.234375 -0.625 C 49.265625 -0.207031 44.320312 0 38.40625 0 Z M 37.296875 -27.125 C 40.140625 -27.125 42.34375 -27.265625 43.90625 -27.546875 C 45.46875 -27.828125 46.550781 -28.25 47.15625 -28.8125 C 47.757812 -29.382812 48.0625 -30.113281 48.0625 -31 C 48.0625 -31.90625 47.757812 -32.644531 47.15625 -33.21875 C 46.550781 -33.789062 45.46875 -34.207031 43.90625 -34.46875 C 42.34375 -34.738281 40.140625 -34.875 37.296875 -34.875 L 24.609375 -34.875 L 24.609375 -27.125 Z M 37.296875 -11.4375 C 40.203125 -11.4375 42.5625 -11.507812 44.375 -11.65625 C 46.1875 -11.8125 47.507812 -12.15625 48.34375 -12.6875 C 49.1875 -13.226562 49.609375 -14.101562 49.609375 -15.3125 C 49.609375 -16.507812 49.1875 -17.382812 48.34375 -17.9375 C 47.507812 -18.488281 46.1875 -18.832031 44.375 -18.96875 C 42.5625 -19.113281 40.203125 -19.1875 37.296875 -19.1875 L 24.609375 -19.1875 L 24.609375 -11.4375 Z M 37.296875 -11.4375 "/></g></g></g><g fill="#000000" fill-opacity="1"><g transform="translate(18.753096, 206.286607)"><g><path d="M 77.828125 0 L 58.125 0 L 53.765625 -7.59375 L 24.546875 -7.59375 L 20.1875 0 L 0.484375 0 L 30.125 -46.3125 L 48.1875 -46.3125 Z M 47.21875 -19.046875 L 39.171875 -33.109375 L 31.09375 -19.046875 Z M 47.21875 -19.046875 "/></g></g></g><g fill="#000000" fill-opacity="1"><g transform="translate(97.064776, 206.286607)"><g><path d="M 24.609375 0 L 5.171875 0 L 5.171875 -46.34375 L 24.609375 -46.34375 Z M 24.609375 0 "/></g></g></g><g fill="#000000" fill-opacity="1"><g transform="translate(126.839357, 206.286607)"><g/></g></g><g fill="#000000" fill-opacity="1"><g transform="translate(143.24444, 206.286607)"><g><path d="M 68.46875 0 L 49.03125 0 L 49.03125 -18.703125 L 24.609375 -18.703125 L 24.609375 0 L 5.171875 0 L 5.171875 -46.34375 L 24.609375 -46.34375 L 24.609375 -27.609375 L 49.03125 -27.609375 L 49.03125 -46.34375 L 68.46875 -46.34375 Z M 68.46875 0 "/></g></g></g><g fill="#000000" fill-opacity="1"><g transform="translate(216.873555, 206.286607)"><g><path d="M 32.578125 1 C 21.273438 1 13.320312 -1.347656 8.71875 -6.046875 C 4.84375 -9.984375 2.90625 -15.675781 2.90625 -23.125 L 2.90625 -46.3125 L 22.34375 -46.3125 L 22.34375 -23.125 C 22.34375 -19.894531 22.894531 -17.34375 24 -15.46875 C 25.570312 -12.78125 28.429688 -11.4375 32.578125 -11.4375 C 36.785156 -11.4375 39.660156 -12.78125 41.203125 -15.46875 C 42.304688 -17.40625 42.859375 -19.957031 42.859375 -23.125 L 42.859375 -46.3125 L 62.296875 -46.3125 L 62.296875 -22.859375 C 62.296875 -15.585938 60.367188 -9.984375 56.515625 -6.046875 C 51.890625 -1.347656 43.910156 1 32.578125 1 Z M 32.578125 1 "/></g></g></g><g fill="#000000" fill-opacity="1"><g transform="translate(282.074084, 206.286607)"><g><path d="M 38.40625 0 L 5.171875 0 L 5.171875 -46.3125 L 39.109375 -46.3125 C 45.140625 -46.3125 50.101562 -46.035156 54 -45.484375 C 57.894531 -44.941406 60.894531 -44.082031 63 -42.90625 C 65.113281 -41.726562 66.546875 -40.234375 67.296875 -38.421875 C 68.054688 -36.617188 68.4375 -34.457031 68.4375 -31.9375 C 68.375 -29.957031 67.828125 -28.316406 66.796875 -27.015625 C 65.773438 -25.710938 64.582031 -24.742188 63.21875 -24.109375 C 61.851562 -23.472656 60.648438 -23.15625 59.609375 -23.15625 C 60.628906 -23.15625 61.816406 -22.953125 63.171875 -22.546875 C 64.523438 -22.148438 65.84375 -21.578125 67.125 -20.828125 C 68.40625 -20.078125 69.46875 -19.160156 70.3125 -18.078125 C 71.164062 -17.003906 71.59375 -15.78125 71.59375 -14.40625 C 71.59375 -12.59375 71.382812 -10.929688 70.96875 -9.421875 C 70.550781 -7.921875 69.710938 -6.585938 68.453125 -5.421875 C 67.191406 -4.265625 65.332031 -3.28125 62.875 -2.46875 C 60.425781 -1.664062 57.210938 -1.050781 53.234375 -0.625 C 49.265625 -0.207031 44.320312 0 38.40625 0 Z M 37.296875 -27.125 C 40.140625 -27.125 42.34375 -27.265625 43.90625 -27.546875 C 45.46875 -27.828125 46.550781 -28.25 47.15625 -28.8125 C 47.757812 -29.382812 48.0625 -30.113281 48.0625 -31 C 48.0625 -31.90625 47.757812 -32.644531 47.15625 -33.21875 C 46.550781 -33.789062 45.46875 -34.207031 43.90625 -34.46875 C 42.34375 -34.738281 40.140625 -34.875 37.296875 -34.875 L 24.609375 -34.875 L 24.609375 -27.125 Z M 37.296875 -11.4375 C 40.203125 -11.4375 42.5625 -11.507812 44.375 -11.65625 C 46.1875 -11.8125 47.507812 -12.15625 48.34375 -12.6875 C 49.1875 -13.226562 49.609375 -14.101562 49.609375 -15.3125 C 49.609375 -16.507812 49.1875 -17.382812 48.34375 -17.9375 C 47.507812 -18.488281 46.1875 -18.832031 44.375 -18.96875 C 42.5625 -19.113281 40.203125 -19.1875 37.296875 -19.1875 L 24.609375 -19.1875 L 24.609375 -11.4375 Z M 37.296875 -11.4375 "/></g></g></g></svg>