<svg xmlns="http://www.w3.org/2000/svg" xmlns:xlink="http://www.w3.org/1999/xlink" width="500" zoomAndPan="magnify" viewBox="0 0 375 374.999991" height="500" preserveAspectRatio="xMidYMid meet" version="1.0"><defs><filter x="0%" y="0%" width="100%" height="100%" id="6d1379bdf7"><feColorMatrix values="0 0 0 0 1 0 0 0 0 1 0 0 0 0 1 0 0 0 1 0" color-interpolation-filters="sRGB"/></filter><g/><clipPath id="c62790b044"><path d="M 112.511719 133.160156 L 262.511719 133.160156 L 262.511719 283.160156 L 112.511719 283.160156 Z M 112.511719 133.160156 " clip-rule="nonzero"/></clipPath><mask id="b7006292ff"><g filter="url(#6d1379bdf7)"><rect x="-37.5" width="450" fill="#000000" y="-37.499999" height="449.999989" fill-opacity="0.2471"/></g></mask><clipPath id="19afe7ff65"><path d="M 71 0.160156 L 78 0.160156 L 78 150.160156 L 71 150.160156 Z M 71 0.160156 " clip-rule="nonzero"/></clipPath><clipPath id="cc7d02b718"><path d="M 58 0.160156 L 86 0.160156 L 86 150 L 58 150 Z M 58 0.160156 " clip-rule="nonzero"/></clipPath><clipPath id="c8d225cbc0"><path d="M 0.511719 69 L 150.511719 69 L 150.511719 135 L 0.511719 135 Z M 0.511719 69 " clip-rule="nonzero"/></clipPath><clipPath id="b2865c6591"><path d="M 69 0.160156 L 86 0.160156 L 86 150.160156 L 69 150.160156 Z M 69 0.160156 " clip-rule="nonzero"/></clipPath><clipPath id="207df75995"><path d="M 55 0.160156 L 96 0.160156 L 96 4 L 55 4 Z M 55 0.160156 " clip-rule="nonzero"/></clipPath><clipPath id="f580506725"><path d="M 0.511719 29 L 150.511719 29 L 150.511719 76 L 0.511719 76 Z M 0.511719 29 " clip-rule="nonzero"/></clipPath><clipPath id="fd18e5c007"><rect x="0" width="151" y="0" height="151"/></clipPath><clipPath id="b483050034"><path d="M 185 133.160156 L 192 133.160156 L 192 283.160156 L 185 283.160156 Z M 185 133.160156 " clip-rule="nonzero"/></clipPath><clipPath id="2e84e42ee9"><path d="M 177 133.160156 L 205 133.160156 L 205 283 L 177 283 Z M 177 133.160156 " clip-rule="nonzero"/></clipPath><clipPath id="8a16690e87"><path d="M 112.511719 148 L 262.511719 148 L 262.511719 215 L 112.511719 215 Z M 112.511719 148 " clip-rule="nonzero"/></clipPath><clipPath id="f139c3cd56"><path d="M 177 133.160156 L 194 133.160156 L 194 283 L 177 283 Z M 177 133.160156 " clip-rule="nonzero"/></clipPath><clipPath id="552e729f79"><path d="M 167 280 L 208 280 L 208 283.160156 L 167 283.160156 Z M 167 280 " clip-rule="nonzero"/></clipPath><clipPath id="919317bcf7"><path d="M 112.511719 207 L 262.511719 207 L 262.511719 255 L 112.511719 255 Z M 112.511719 207 " clip-rule="nonzero"/></clipPath><clipPath id="df9649dcf8"><path d="M 149 133.160156 L 226 133.160156 L 226 180 L 149 180 Z M 149 133.160156 " clip-rule="nonzero"/></clipPath></defs><g clip-path="url(#c62790b044)"><g mask="url(#b7006292ff)"><g transform="matrix(1, 0, 0, 1, 112, 133)"><g clip-path="url(#fd18e5c007)"><g clip-path="url(#19afe7ff65)"><path fill="#000000" d="M 77.835938 150.160156 C 76.414062 150.160156 74.3125 116.636719 73.261719 75.234375 C 72.136719 33.835938 72.4375 0.234375 73.863281 0.160156 C 73.636719 0.160156 73.414062 0.160156 73.1875 0.160156 C 71.761719 0.234375 71.460938 33.835938 72.585938 75.234375 C 73.710938 116.636719 75.738281 150.160156 77.164062 150.160156 C 77.386719 150.160156 77.613281 150.160156 77.835938 150.160156 Z M 77.835938 150.160156 " fill-opacity="1" fill-rule="nonzero"/></g><g clip-path="url(#cc7d02b718)"><path fill="#000000" d="M 85.863281 149.410156 C 78.8125 150.386719 68.613281 117.910156 63.0625 76.808594 C 57.511719 35.859375 58.789062 1.734375 65.761719 0.761719 C 65.539062 0.761719 65.3125 0.835938 65.085938 0.835938 C 58.039062 1.808594 56.835938 35.859375 62.386719 76.886719 C 67.9375 117.910156 78.136719 150.386719 85.1875 149.484375 C 85.414062 149.484375 85.636719 149.484375 85.863281 149.410156 Z M 85.863281 149.410156 " fill-opacity="1" fill-rule="nonzero"/></g><path fill="#000000" d="M 94.1875 147.835938 C 81.960938 150.910156 63.886719 120.910156 53.761719 80.710938 C 43.636719 40.585938 45.289062 5.484375 57.4375 2.335938 C 57.4375 2.335938 57.4375 2.335938 57.511719 2.335938 C 57.289062 2.410156 57.0625 2.484375 56.835938 2.484375 C 44.6875 5.636719 42.960938 40.660156 53.164062 80.859375 C 63.289062 120.984375 81.363281 150.984375 93.511719 147.984375 C 93.738281 147.910156 93.960938 147.835938 94.1875 147.835938 Z M 94.1875 147.835938 " fill-opacity="1" fill-rule="nonzero"/><path fill="#000000" d="M 102.960938 144.984375 C 86.539062 151.433594 61.039062 125.410156 46.039062 86.785156 C 31.039062 48.160156 32.164062 11.636719 48.585938 5.183594 C 48.585938 5.183594 48.664062 5.183594 48.664062 5.109375 C 48.511719 5.183594 48.289062 5.261719 48.0625 5.335938 C 31.636719 11.785156 30.4375 48.308594 45.511719 86.933594 C 60.511719 125.410156 85.863281 151.511719 102.363281 145.210938 C 102.511719 145.136719 102.738281 145.058594 102.960938 144.984375 Z M 102.960938 144.984375 " fill-opacity="1" fill-rule="nonzero"/><path fill="#000000" d="M 112.414062 140.484375 C 93.0625 151.359375 61.039062 130.960938 40.789062 94.808594 C 20.539062 58.660156 19.863281 20.484375 39.136719 9.609375 C 39.210938 9.609375 39.289062 9.535156 39.289062 9.535156 C 39.0625 9.683594 38.835938 9.761719 38.613281 9.910156 C 19.335938 20.785156 20.011719 58.886719 40.261719 95.035156 C 60.4375 131.035156 92.3125 151.511719 111.738281 140.859375 C 111.960938 140.710938 112.1875 140.558594 112.414062 140.484375 Z M 112.414062 140.484375 " fill-opacity="1" fill-rule="nonzero"/><path fill="#000000" d="M 122.460938 133.660156 C 102.136719 150.011719 64.710938 136.960938 38.914062 104.558594 C 13.113281 72.160156 8.613281 32.636719 29.011719 16.359375 C 29.085938 16.285156 29.164062 16.210938 29.238281 16.136719 C 29.011719 16.285156 28.789062 16.511719 28.5625 16.660156 C 8.238281 33.011719 12.664062 72.460938 38.460938 104.859375 C 64.1875 137.109375 101.386719 150.160156 121.789062 134.183594 C 122.011719 134.035156 122.238281 133.808594 122.460938 133.660156 Z M 122.460938 133.660156 " fill-opacity="1" fill-rule="nonzero"/><path fill="#000000" d="M 132.8125 123.535156 C 113.988281 145.808594 73.1875 142.136719 41.613281 115.285156 C 10.039062 88.433594 -0.3125 48.683594 18.511719 26.410156 C 18.585938 26.261719 18.738281 26.183594 18.8125 26.035156 C 18.585938 26.261719 18.4375 26.484375 18.210938 26.710938 C -0.613281 49.058594 9.738281 88.808594 41.3125 115.660156 C 72.664062 142.359375 113.238281 146.183594 132.210938 124.285156 C 132.4375 123.984375 132.585938 123.761719 132.8125 123.535156 Z M 132.8125 123.535156 " fill-opacity="1" fill-rule="nonzero"/><path fill="#000000" d="M 142.335938 109.210938 C 128.085938 137.109375 86.6875 144.460938 49.863281 125.558594 C 13.039062 106.660156 -5.335938 68.710938 8.914062 40.734375 C 8.988281 40.585938 9.0625 40.359375 9.136719 40.210938 C 8.988281 40.511719 8.835938 40.808594 8.6875 41.109375 C -5.5625 69.011719 12.8125 107.035156 49.636719 125.933594 C 86.238281 144.683594 127.414062 137.636719 141.886719 110.109375 C 142.039062 109.808594 142.1875 109.511719 142.335938 109.210938 Z M 142.335938 109.210938 " fill-opacity="1" fill-rule="nonzero"/><path fill="#000000" d="M 148.9375 90.460938 C 142.261719 122.410156 104.011719 141.308594 63.511719 132.683594 C 23.011719 124.136719 -4.4375 91.285156 2.238281 59.410156 C 2.238281 59.183594 2.238281 59.035156 2.3125 58.808594 C 2.238281 59.183594 2.164062 59.484375 2.085938 59.859375 C -4.585938 91.734375 22.863281 124.585938 63.363281 133.136719 C 103.5625 141.683594 141.585938 123.085938 148.636719 91.585938 C 148.789062 91.210938 148.863281 90.835938 148.9375 90.460938 Z M 148.9375 90.460938 " fill-opacity="1" fill-rule="nonzero"/><g clip-path="url(#c8d225cbc0)"><path fill="#000000" d="M 150.289062 69.234375 C 152.835938 101.933594 121.488281 131.035156 80.164062 134.183594 C 38.835938 137.335938 3.289062 113.410156 0.738281 80.636719 C 0.738281 80.410156 0.738281 80.183594 0.664062 79.960938 C 0.664062 80.335938 0.738281 80.710938 0.738281 81.011719 C 3.363281 113.785156 38.914062 137.785156 80.238281 134.636719 C 121.1875 131.484375 152.460938 102.835938 150.363281 70.359375 C 150.363281 69.984375 150.289062 69.609375 150.289062 69.234375 Z M 150.289062 69.234375 " fill-opacity="1" fill-rule="nonzero"/></g><path fill="#000000" d="M 145.789062 48.984375 C 156.960938 79.058594 134.539062 115.058594 95.6875 129.386719 C 56.835938 143.710938 16.261719 130.960938 5.085938 100.886719 C 5.011719 100.734375 4.9375 100.511719 4.863281 100.359375 C 5.011719 100.660156 5.085938 100.960938 5.238281 101.335938 C 16.414062 131.410156 56.988281 144.160156 95.835938 129.835938 C 134.386719 115.585938 156.886719 80.035156 146.164062 50.035156 C 146.011719 49.660156 145.9375 49.359375 145.789062 48.984375 Z M 145.789062 48.984375 " fill-opacity="1" fill-rule="nonzero"/><path fill="#000000" d="M 137.238281 32.558594 C 154.488281 57.535156 140.761719 96.835938 106.5625 120.234375 C 72.363281 143.636719 30.738281 142.359375 13.488281 117.386719 C 13.414062 117.234375 13.335938 117.085938 13.261719 116.933594 C 13.414062 117.234375 13.5625 117.460938 13.789062 117.761719 C 31.039062 142.734375 72.664062 144.011719 106.863281 120.609375 C 140.761719 97.359375 154.636719 58.433594 137.761719 33.386719 C 137.613281 33.085938 137.460938 32.859375 137.238281 32.558594 Z M 137.238281 32.558594 " fill-opacity="1" fill-rule="nonzero"/><path fill="#000000" d="M 127.039062 20.636719 C 147.210938 39.683594 140.386719 79.433594 111.8125 109.433594 C 83.238281 139.433594 43.789062 148.359375 23.6875 129.308594 C 23.539062 129.234375 23.460938 129.160156 23.386719 129.085938 C 23.613281 129.308594 23.835938 129.460938 23.988281 129.683594 C 44.164062 148.734375 83.613281 139.808594 112.1875 109.808594 C 140.539062 79.960938 147.511719 40.433594 127.636719 21.234375 C 127.414062 21.011719 127.1875 20.859375 127.039062 20.636719 Z M 127.039062 20.636719 " fill-opacity="1" fill-rule="nonzero"/><path fill="#000000" d="M 116.6875 12.460938 C 136.9375 25.734375 134.835938 64.585938 111.960938 99.085938 C 89.085938 133.660156 54.136719 150.835938 33.886719 137.558594 C 33.8125 137.484375 33.738281 137.484375 33.664062 137.410156 C 33.886719 137.558594 34.113281 137.710938 34.335938 137.859375 C 54.585938 151.136719 89.539062 133.960938 112.414062 99.386719 C 135.136719 65.035156 137.386719 26.335938 117.363281 12.910156 C 117.136719 12.761719 116.914062 12.609375 116.6875 12.460938 Z M 116.6875 12.460938 " fill-opacity="1" fill-rule="nonzero"/><path fill="#000000" d="M 106.9375 7.058594 C 125.085938 15.460938 125.613281 52.660156 108.136719 90.234375 C 90.664062 127.808594 61.710938 151.433594 43.5625 143.035156 C 43.488281 143.035156 43.488281 142.960938 43.414062 142.960938 C 43.636719 143.035156 43.863281 143.183594 44.085938 143.261719 C 62.238281 151.660156 91.1875 128.035156 108.664062 90.460938 C 126.136719 53.035156 125.613281 15.910156 107.613281 7.359375 C 107.386719 7.285156 107.164062 7.136719 106.9375 7.058594 Z M 106.9375 7.058594 " fill-opacity="1" fill-rule="nonzero"/><path fill="#000000" d="M 97.863281 3.535156 C 112.335938 8.035156 113.988281 43.734375 101.460938 83.261719 C 88.9375 122.785156 67.113281 151.058594 52.636719 146.558594 L 52.5625 146.558594 C 52.710938 146.636719 52.9375 146.710938 53.164062 146.785156 C 67.636719 151.285156 89.539062 123.011719 101.988281 83.484375 C 114.511719 44.035156 112.9375 8.410156 98.539062 3.761719 C 98.3125 3.683594 98.085938 3.609375 97.863281 3.535156 Z M 97.863281 3.535156 " fill-opacity="1" fill-rule="nonzero"/><path fill="#000000" d="M 89.3125 1.433594 C 98.988281 3.234375 100.5625 37.734375 92.761719 78.386719 C 84.960938 119.035156 70.789062 150.535156 61.039062 148.734375 C 61.261719 148.808594 61.488281 148.808594 61.710938 148.886719 C 71.386719 150.683594 85.636719 119.183594 93.4375 78.535156 C 101.238281 37.886719 99.664062 3.460938 89.988281 1.585938 C 89.761719 1.511719 89.539062 1.511719 89.3125 1.433594 Z M 89.3125 1.433594 " fill-opacity="1" fill-rule="nonzero"/><g clip-path="url(#b2865c6591)"><path fill="#000000" d="M 81.210938 0.386719 C 85.488281 0.761719 86.238281 34.511719 82.9375 75.761719 C 79.636719 117.085938 73.488281 150.234375 69.210938 149.933594 C 69.4375 149.933594 69.664062 149.933594 69.886719 150.011719 C 74.085938 150.308594 80.238281 117.085938 83.613281 75.835938 C 86.914062 34.511719 86.164062 0.835938 81.886719 0.460938 C 81.585938 0.386719 81.363281 0.386719 81.210938 0.386719 Z M 81.210938 0.386719 " fill-opacity="1" fill-rule="nonzero"/></g><g clip-path="url(#207df75995)"><path fill="#000000" d="M 95.988281 3.011719 C 83.011719 -0.664062 68.011719 -0.664062 55.039062 3.011719 C 55.710938 2.785156 56.386719 2.636719 56.988281 2.484375 C 68.835938 -0.515625 82.113281 -0.515625 93.960938 2.484375 C 94.636719 2.636719 95.3125 2.785156 95.988281 3.011719 Z M 95.988281 3.011719 " fill-opacity="1" fill-rule="nonzero"/></g><path fill="#000000" d="M 119.914062 14.710938 C 99.585938 -0.214844 63.210938 -2.316406 38.6875 10.058594 C 35.914062 11.484375 33.363281 12.984375 31.113281 14.710938 C 31.414062 14.484375 31.710938 14.261719 32.011719 14.109375 C 52.5625 -0.589844 88.636719 -2.316406 112.710938 10.210938 C 114.960938 11.410156 117.0625 12.683594 119.011719 14.109375 C 119.3125 14.261719 119.613281 14.484375 119.914062 14.710938 Z M 119.914062 14.710938 " fill-opacity="1" fill-rule="nonzero"/><path fill="#000000" d="M 134.011719 28.285156 C 118.261719 8.636719 79.261719 0.460938 46.9375 10.058594 C 33.886719 13.886719 23.386719 20.335938 17.011719 28.285156 C 17.238281 28.058594 17.386719 27.835938 17.613281 27.535156 C 33.585938 8.035156 72.511719 0.160156 104.539062 9.910156 C 117.0625 13.734375 127.1875 19.886719 133.488281 27.535156 C 133.636719 27.761719 133.863281 27.984375 134.011719 28.285156 Z M 134.011719 28.285156 " fill-opacity="1" fill-rule="nonzero"/><path fill="#000000" d="M 143.386719 43.210938 C 132.664062 20.410156 93.585938 7.210938 56.085938 13.734375 C 32.6875 17.785156 14.386719 28.960938 7.710938 43.210938 C 7.789062 42.984375 7.9375 42.683594 8.011719 42.460938 C 19.039062 19.734375 58.1875 6.761719 95.460938 13.511719 C 118.335938 17.558594 136.261719 28.511719 143.011719 42.460938 C 143.085938 42.683594 143.238281 42.984375 143.386719 43.210938 Z M 143.386719 43.210938 " fill-opacity="1" fill-rule="nonzero"/><path fill="#000000" d="M 148.789062 59.183594 C 143.386719 34.511719 106.261719 17.183594 65.761719 20.484375 C 32.6875 23.183594 6.664062 39.011719 2.238281 59.183594 C 2.3125 58.886719 2.386719 58.585938 2.386719 58.359375 C 8.085938 33.761719 45.363281 16.660156 85.789062 20.109375 C 118.414062 22.886719 144.0625 38.484375 148.636719 58.359375 C 148.636719 58.585938 148.710938 58.886719 148.789062 59.183594 Z M 148.789062 59.183594 " fill-opacity="1" fill-rule="nonzero"/><g clip-path="url(#f580506725)"><path fill="#000000" d="M 150.511719 75.535156 C 150.664062 50.335938 117.136719 29.785156 75.738281 29.710938 C 34.335938 29.710938 0.664062 50.035156 0.511719 75.308594 C 0.511719 75.386719 0.511719 75.535156 0.511719 75.609375 C 0.511719 75.308594 0.511719 75.085938 0.511719 74.785156 C 0.664062 49.511719 34.335938 29.183594 75.738281 29.261719 C 116.988281 29.335938 150.363281 49.660156 150.511719 74.710938 C 150.511719 75.011719 150.511719 75.308594 150.511719 75.535156 Z M 150.511719 75.535156 " fill-opacity="1" fill-rule="nonzero"/></g><path fill="#000000" d="M 148.636719 91.960938 C 154.261719 67.359375 126.136719 44.710938 85.789062 41.261719 C 45.4375 37.808594 8.085938 54.910156 2.460938 79.511719 C 1.488281 83.636719 1.488281 87.835938 2.460938 91.960938 C 2.386719 91.660156 2.3125 91.433594 2.3125 91.136719 C -3.164062 66.535156 25.335938 43.886719 65.761719 40.660156 C 106.261719 37.359375 143.386719 54.683594 148.789062 79.359375 C 149.613281 83.335938 149.613281 87.308594 148.789062 91.210938 C 148.710938 91.433594 148.636719 91.734375 148.636719 91.960938 Z M 148.636719 91.960938 " fill-opacity="1" fill-rule="nonzero"/><path fill="#000000" d="M 143.011719 107.859375 C 154.039062 85.136719 132.738281 61.359375 95.460938 54.683594 C 58.1875 48.011719 19.039062 60.910156 8.011719 83.636719 C 4.1875 91.585938 4.1875 99.984375 8.011719 107.859375 C 7.863281 107.636719 7.789062 107.335938 7.636719 107.109375 C -3.085938 84.308594 18.585938 60.535156 56.011719 53.933594 C 93.511719 47.410156 132.664062 60.609375 143.386719 83.410156 C 147.0625 91.136719 147.0625 99.386719 143.386719 107.109375 C 143.238281 107.335938 143.085938 107.636719 143.011719 107.859375 Z M 143.011719 107.859375 " fill-opacity="1" fill-rule="nonzero"/><path fill="#000000" d="M 133.488281 122.785156 C 149.460938 103.285156 136.5625 79.585938 104.539062 69.835938 C 72.511719 60.085938 33.585938 67.960938 17.613281 87.460938 C 8.460938 98.558594 8.460938 111.683594 17.613281 122.785156 C 17.386719 122.558594 17.238281 122.335938 17.011719 122.035156 C 1.261719 102.386719 14.6875 78.609375 46.9375 69.011719 C 79.261719 59.484375 118.261719 67.660156 134.011719 87.308594 C 142.789062 98.261719 142.789062 111.085938 134.011719 122.109375 C 133.863281 122.335938 133.636719 122.558594 133.488281 122.785156 Z M 133.488281 122.785156 " fill-opacity="1" fill-rule="nonzero"/><path fill="#000000" d="M 119.011719 136.210938 C 139.5625 121.585938 136.710938 99.609375 112.710938 87.085938 C 88.710938 74.558594 52.5625 76.285156 32.011719 90.910156 C 13.710938 103.960938 13.710938 123.160156 32.011719 136.210938 C 31.710938 135.984375 31.414062 135.761719 31.113281 135.609375 C 10.789062 120.683594 14.164062 98.558594 38.6875 86.183594 C 63.210938 73.808594 99.585938 75.910156 119.914062 90.835938 C 137.613281 103.808594 137.613281 122.636719 119.914062 135.609375 C 119.613281 135.835938 119.3125 136.058594 119.011719 136.210938 Z M 119.011719 136.210938 " fill-opacity="1" fill-rule="nonzero"/><path fill="#000000" d="M 94.039062 147.835938 C 118.414062 141.609375 129.960938 124.511719 119.761719 109.660156 C 109.5625 94.808594 81.4375 87.761719 56.988281 93.984375 C 32.613281 100.210938 21.0625 117.308594 31.261719 132.160156 C 36.136719 139.285156 45.363281 144.910156 56.988281 147.835938 C 56.3125 147.683594 55.636719 147.460938 55.039062 147.308594 C 30.8125 140.410156 20.3125 122.859375 31.5625 108.085938 C 42.886719 93.308594 71.6875 86.933594 95.988281 93.835938 C 120.210938 100.734375 130.710938 118.285156 119.460938 133.058594 C 114.664062 139.359375 106.335938 144.386719 95.988281 147.308594 C 95.3125 147.535156 94.636719 147.683594 94.039062 147.835938 Z M 94.039062 147.835938 " fill-opacity="1" fill-rule="nonzero"/><path fill="#000000" d="M 112.710938 126.835938 C 112.710938 139.359375 96.0625 149.484375 75.511719 149.484375 C 54.960938 149.484375 38.3125 139.359375 38.3125 126.835938 C 38.3125 114.308594 54.960938 104.183594 75.511719 104.183594 C 96.0625 104.183594 112.710938 114.308594 112.710938 126.835938 Z M 113.3125 126.535156 C 113.3125 113.859375 96.4375 103.511719 75.511719 103.511719 C 54.664062 103.511719 37.710938 113.785156 37.710938 126.535156 C 37.710938 139.210938 54.585938 149.558594 75.511719 149.558594 C 96.363281 149.558594 113.3125 139.285156 113.3125 126.535156 Z M 113.3125 126.535156 " fill-opacity="1" fill-rule="nonzero"/><path fill="#000000" d="M 100.863281 131.183594 C 100.863281 139.734375 89.539062 146.636719 75.511719 146.636719 C 61.488281 146.636719 50.164062 139.660156 50.164062 131.183594 C 50.164062 122.636719 61.488281 115.734375 75.511719 115.734375 C 89.539062 115.734375 100.863281 122.636719 100.863281 131.183594 Z M 101.460938 130.960938 C 101.460938 122.261719 89.835938 115.136719 75.511719 115.136719 C 61.1875 115.136719 49.5625 122.183594 49.5625 130.960938 C 49.5625 139.734375 61.1875 146.785156 75.511719 146.785156 C 89.835938 146.785156 101.460938 139.734375 101.460938 130.960938 Z M 101.460938 130.960938 " fill-opacity="1" fill-rule="nonzero"/><path fill="#000000" d="M 88.1875 133.808594 C 88.1875 138.085938 82.488281 141.535156 75.511719 141.535156 C 68.460938 141.535156 62.835938 138.085938 62.835938 133.808594 C 62.835938 129.535156 68.460938 126.085938 75.511719 126.085938 C 82.5625 126.085938 88.1875 129.535156 88.1875 133.808594 Z M 88.863281 133.734375 C 88.863281 129.234375 82.863281 125.636719 75.511719 125.636719 C 68.164062 125.636719 62.164062 129.234375 62.164062 133.734375 C 62.164062 138.234375 68.164062 141.835938 75.511719 141.835938 C 82.863281 141.835938 88.863281 138.234375 88.863281 133.734375 Z M 88.863281 133.734375 " fill-opacity="1" fill-rule="nonzero"/></g></g></g></g><g clip-path="url(#b483050034)"><path fill="#000000" d="M 185.1875 133.160156 C 186.613281 133.160156 188.710938 166.683594 189.761719 208.085938 C 190.886719 249.484375 190.585938 283.085938 189.164062 283.160156 C 189.386719 283.160156 189.613281 283.160156 189.835938 283.160156 C 191.261719 283.085938 191.5625 249.484375 190.4375 208.085938 C 189.3125 166.683594 187.289062 133.160156 185.863281 133.160156 C 185.636719 133.160156 185.414062 133.160156 185.1875 133.160156 Z M 185.1875 133.160156 " fill-opacity="1" fill-rule="nonzero"/></g><g clip-path="url(#2e84e42ee9)"><path fill="#000000" d="M 177.164062 133.910156 C 184.210938 132.933594 194.414062 165.410156 199.960938 206.511719 C 205.511719 247.609375 204.238281 281.585938 197.261719 282.558594 C 197.488281 282.558594 197.710938 282.484375 197.9375 282.484375 C 204.988281 281.511719 206.1875 247.460938 200.636719 206.433594 C 195.085938 165.410156 184.886719 132.933594 177.835938 133.835938 C 177.613281 133.835938 177.386719 133.835938 177.164062 133.910156 Z M 177.164062 133.910156 " fill-opacity="1" fill-rule="nonzero"/></g><path fill="#000000" d="M 168.835938 135.484375 C 181.0625 132.410156 199.136719 162.410156 209.261719 202.609375 C 219.386719 242.734375 217.738281 277.835938 205.585938 280.984375 C 205.585938 280.984375 205.585938 280.984375 205.511719 280.984375 C 205.738281 280.910156 205.960938 280.835938 206.1875 280.835938 C 218.335938 277.683594 220.0625 242.660156 209.863281 202.460938 C 199.738281 162.335938 181.664062 132.335938 169.511719 135.335938 C 169.289062 135.410156 169.0625 135.484375 168.835938 135.484375 Z M 168.835938 135.484375 " fill-opacity="1" fill-rule="nonzero"/><path fill="#000000" d="M 160.0625 138.335938 C 176.488281 131.886719 201.988281 157.910156 216.988281 196.535156 C 231.988281 235.160156 230.863281 271.683594 214.4375 278.136719 C 214.4375 278.136719 214.363281 278.136719 214.363281 278.210938 C 214.511719 278.136719 214.738281 278.058594 214.960938 277.984375 C 231.386719 271.535156 232.585938 235.011719 217.511719 196.386719 C 202.511719 157.910156 177.164062 131.808594 160.664062 138.109375 C 160.511719 138.183594 160.289062 138.261719 160.0625 138.335938 Z M 160.0625 138.335938 " fill-opacity="1" fill-rule="nonzero"/><path fill="#000000" d="M 150.613281 142.835938 C 169.960938 131.960938 201.988281 152.359375 222.238281 188.511719 C 242.488281 224.660156 243.164062 262.835938 223.886719 273.710938 C 223.8125 273.710938 223.738281 273.785156 223.738281 273.785156 C 223.960938 273.636719 224.1875 273.558594 224.414062 273.410156 C 243.6875 262.535156 243.011719 224.433594 222.761719 188.285156 C 202.585938 152.285156 170.710938 131.808594 151.289062 142.460938 C 151.0625 142.609375 150.835938 142.761719 150.613281 142.835938 Z M 150.613281 142.835938 " fill-opacity="1" fill-rule="nonzero"/><path fill="#000000" d="M 140.5625 149.660156 C 160.886719 133.308594 198.3125 146.359375 224.113281 178.761719 C 249.914062 211.160156 254.414062 250.683594 234.011719 266.960938 C 233.9375 267.035156 233.863281 267.109375 233.789062 267.183594 C 234.011719 267.035156 234.238281 266.808594 234.460938 266.660156 C 254.789062 250.308594 250.363281 210.859375 224.5625 178.460938 C 198.835938 146.210938 161.636719 133.160156 141.238281 149.136719 C 141.011719 149.285156 140.789062 149.511719 140.5625 149.660156 Z M 140.5625 149.660156 " fill-opacity="1" fill-rule="nonzero"/><path fill="#000000" d="M 130.210938 159.785156 C 149.039062 137.511719 189.835938 141.183594 221.414062 168.035156 C 252.988281 194.886719 263.335938 234.636719 244.511719 256.910156 C 244.4375 257.058594 244.289062 257.136719 244.210938 257.285156 C 244.4375 257.058594 244.585938 256.835938 244.8125 256.609375 C 263.636719 234.261719 253.289062 194.511719 221.710938 167.660156 C 190.363281 140.960938 149.789062 137.136719 130.8125 159.035156 C 130.585938 159.335938 130.4375 159.558594 130.210938 159.785156 Z M 130.210938 159.785156 " fill-opacity="1" fill-rule="nonzero"/><path fill="#000000" d="M 120.6875 174.109375 C 134.9375 146.210938 176.335938 138.859375 213.164062 157.761719 C 249.988281 176.660156 268.363281 214.609375 254.113281 242.585938 C 254.039062 242.734375 253.960938 242.960938 253.886719 243.109375 C 254.039062 242.808594 254.1875 242.511719 254.335938 242.210938 C 268.585938 214.308594 250.210938 176.285156 213.386719 157.386719 C 176.789062 138.636719 135.613281 145.683594 121.136719 173.210938 C 120.988281 173.511719 120.835938 173.808594 120.6875 174.109375 Z M 120.6875 174.109375 " fill-opacity="1" fill-rule="nonzero"/><path fill="#000000" d="M 114.085938 192.859375 C 120.761719 160.910156 159.011719 142.011719 199.511719 150.636719 C 240.011719 159.183594 267.460938 192.035156 260.789062 223.910156 C 260.789062 224.136719 260.789062 224.285156 260.710938 224.511719 C 260.789062 224.136719 260.863281 223.835938 260.9375 223.460938 C 267.613281 191.585938 240.164062 158.734375 199.664062 150.183594 C 159.460938 141.636719 121.4375 160.234375 114.386719 191.734375 C 114.238281 192.109375 114.164062 192.484375 114.085938 192.859375 Z M 114.085938 192.859375 " fill-opacity="1" fill-rule="nonzero"/><g clip-path="url(#8a16690e87)"><path fill="#000000" d="M 112.738281 214.085938 C 110.1875 181.386719 141.539062 152.285156 182.863281 149.136719 C 224.1875 145.984375 259.738281 169.910156 262.289062 202.683594 C 262.289062 202.910156 262.289062 203.136719 262.363281 203.359375 C 262.363281 202.984375 262.289062 202.609375 262.289062 202.308594 C 259.664062 169.535156 224.113281 145.535156 182.789062 148.683594 C 141.835938 151.835938 110.5625 180.484375 112.664062 212.960938 C 112.664062 213.335938 112.738281 213.710938 112.738281 214.085938 Z M 112.738281 214.085938 " fill-opacity="1" fill-rule="nonzero"/></g><path fill="#000000" d="M 117.238281 234.335938 C 106.0625 204.261719 128.488281 168.261719 167.335938 153.933594 C 206.1875 139.609375 246.761719 152.359375 257.9375 182.433594 C 258.011719 182.585938 258.085938 182.808594 258.164062 182.960938 C 258.011719 182.660156 257.9375 182.359375 257.789062 181.984375 C 246.613281 151.910156 206.039062 139.160156 167.1875 153.484375 C 128.636719 167.734375 106.136719 203.285156 116.863281 233.285156 C 117.011719 233.660156 117.085938 233.960938 117.238281 234.335938 Z M 117.238281 234.335938 " fill-opacity="1" fill-rule="nonzero"/><path fill="#000000" d="M 125.789062 250.761719 C 108.539062 225.785156 122.261719 186.558594 156.460938 163.085938 C 190.664062 139.683594 232.289062 140.960938 249.539062 165.933594 C 249.613281 166.085938 249.6875 166.234375 249.761719 166.386719 C 249.613281 166.085938 249.460938 165.859375 249.238281 165.558594 C 231.988281 140.585938 190.363281 139.308594 156.164062 162.710938 C 122.261719 185.960938 108.386719 224.886719 125.261719 249.933594 C 125.414062 250.234375 125.5625 250.460938 125.789062 250.761719 Z M 125.789062 250.761719 " fill-opacity="1" fill-rule="nonzero"/><path fill="#000000" d="M 135.988281 262.683594 C 115.8125 243.636719 122.636719 203.886719 151.210938 173.886719 C 179.789062 143.886719 219.238281 134.960938 239.335938 154.011719 C 239.488281 154.085938 239.5625 154.160156 239.636719 154.234375 C 239.414062 154.011719 239.1875 153.859375 239.039062 153.636719 C 218.863281 134.585938 179.414062 143.511719 150.835938 173.511719 C 122.488281 203.359375 115.511719 242.886719 135.386719 262.085938 C 135.613281 262.308594 135.835938 262.460938 135.988281 262.683594 Z M 135.988281 262.683594 " fill-opacity="1" fill-rule="nonzero"/><path fill="#000000" d="M 146.335938 270.859375 C 126.085938 257.585938 128.1875 218.734375 151.0625 184.234375 C 173.9375 149.660156 208.886719 132.484375 229.136719 145.761719 C 229.210938 145.835938 229.289062 145.835938 229.363281 145.910156 C 229.136719 145.761719 228.914062 145.609375 228.6875 145.460938 C 208.4375 132.183594 173.488281 149.359375 150.613281 183.933594 C 127.886719 218.285156 125.636719 256.984375 145.664062 270.410156 C 145.886719 270.558594 146.113281 270.710938 146.335938 270.859375 Z M 146.335938 270.859375 " fill-opacity="1" fill-rule="nonzero"/><path fill="#000000" d="M 156.085938 276.261719 C 137.9375 267.859375 137.414062 230.660156 154.886719 193.085938 C 172.363281 155.511719 201.3125 131.886719 219.460938 140.285156 C 219.539062 140.285156 219.539062 140.359375 219.613281 140.359375 C 219.386719 140.285156 219.164062 140.136719 218.9375 140.058594 C 200.789062 131.660156 171.835938 155.285156 154.363281 192.859375 C 136.886719 230.285156 137.414062 267.410156 155.414062 275.960938 C 155.636719 276.035156 155.863281 276.183594 156.085938 276.261719 Z M 156.085938 276.261719 " fill-opacity="1" fill-rule="nonzero"/><path fill="#000000" d="M 165.164062 279.785156 C 150.6875 275.285156 149.039062 239.585938 161.5625 200.058594 C 174.085938 160.535156 195.914062 132.261719 210.386719 136.761719 L 210.460938 136.761719 C 210.3125 136.683594 210.085938 136.609375 209.863281 136.535156 C 195.386719 132.035156 173.488281 160.308594 161.039062 199.835938 C 148.511719 239.285156 150.085938 274.910156 164.488281 279.558594 C 164.710938 279.636719 164.9375 279.710938 165.164062 279.785156 Z M 165.164062 279.785156 " fill-opacity="1" fill-rule="nonzero"/><path fill="#000000" d="M 173.710938 281.886719 C 164.039062 280.085938 162.460938 245.585938 170.261719 204.933594 C 178.0625 164.285156 192.238281 132.785156 201.988281 134.585938 C 201.761719 134.511719 201.539062 134.511719 201.3125 134.433594 C 191.636719 132.636719 177.386719 164.136719 169.585938 204.785156 C 161.789062 245.433594 163.363281 279.859375 173.039062 281.734375 C 173.261719 281.808594 173.488281 281.808594 173.710938 281.886719 Z M 173.710938 281.886719 " fill-opacity="1" fill-rule="nonzero"/><g clip-path="url(#f139c3cd56)"><path fill="#000000" d="M 181.8125 282.933594 C 177.539062 282.558594 176.789062 248.808594 180.085938 207.558594 C 183.386719 166.234375 189.539062 133.085938 193.8125 133.386719 C 193.585938 133.386719 193.363281 133.386719 193.136719 133.308594 C 188.9375 133.011719 182.789062 166.234375 179.414062 207.484375 C 176.113281 248.808594 176.863281 282.484375 181.136719 282.859375 C 181.4375 282.933594 181.664062 282.933594 181.8125 282.933594 Z M 181.8125 282.933594 " fill-opacity="1" fill-rule="nonzero"/></g><g clip-path="url(#552e729f79)"><path fill="#000000" d="M 167.039062 280.308594 C 180.011719 283.984375 195.011719 283.984375 207.988281 280.308594 C 207.3125 280.535156 206.636719 280.683594 206.039062 280.835938 C 194.1875 283.835938 180.914062 283.835938 169.0625 280.835938 C 168.386719 280.683594 167.710938 280.535156 167.039062 280.308594 Z M 167.039062 280.308594 " fill-opacity="1" fill-rule="nonzero"/></g><path fill="#000000" d="M 143.113281 268.609375 C 163.4375 283.535156 199.8125 285.636719 224.335938 273.261719 C 227.113281 271.835938 229.664062 270.335938 231.914062 268.609375 C 231.613281 268.835938 231.3125 269.058594 231.011719 269.210938 C 210.460938 283.910156 174.386719 285.636719 150.3125 273.109375 C 148.0625 271.910156 145.960938 270.636719 144.011719 269.210938 C 143.710938 269.058594 143.414062 268.835938 143.113281 268.609375 Z M 143.113281 268.609375 " fill-opacity="1" fill-rule="nonzero"/><path fill="#000000" d="M 129.011719 255.035156 C 144.761719 274.683594 183.761719 282.859375 216.085938 273.261719 C 229.136719 269.433594 239.636719 262.984375 246.011719 255.035156 C 245.789062 255.261719 245.636719 255.484375 245.414062 255.785156 C 229.4375 275.285156 190.511719 283.160156 158.488281 273.410156 C 145.960938 269.585938 135.835938 263.433594 129.539062 255.785156 C 129.386719 255.558594 129.164062 255.335938 129.011719 255.035156 Z M 129.011719 255.035156 " fill-opacity="1" fill-rule="nonzero"/><path fill="#000000" d="M 119.636719 240.109375 C 130.363281 262.910156 169.4375 276.109375 206.9375 269.585938 C 230.335938 265.535156 248.636719 254.359375 255.3125 240.109375 C 255.238281 240.335938 255.085938 240.636719 255.011719 240.859375 C 243.988281 263.585938 204.835938 276.558594 167.5625 269.808594 C 144.6875 265.761719 126.761719 254.808594 120.011719 240.859375 C 119.9375 240.636719 119.789062 240.335938 119.636719 240.109375 Z M 119.636719 240.109375 " fill-opacity="1" fill-rule="nonzero"/><path fill="#000000" d="M 114.238281 224.136719 C 119.636719 248.808594 156.761719 266.136719 197.261719 262.835938 C 230.335938 260.136719 256.363281 244.308594 260.789062 224.136719 C 260.710938 224.433594 260.636719 224.734375 260.636719 224.960938 C 254.9375 249.558594 217.664062 266.660156 177.238281 263.210938 C 144.613281 260.433594 118.960938 244.835938 114.386719 224.960938 C 114.386719 224.734375 114.3125 224.433594 114.238281 224.136719 Z M 114.238281 224.136719 " fill-opacity="1" fill-rule="nonzero"/><g clip-path="url(#919317bcf7)"><path fill="#000000" d="M 112.511719 207.710938 C 112.363281 232.910156 145.886719 253.460938 187.289062 253.535156 C 228.6875 253.609375 262.363281 233.285156 262.511719 208.011719 C 262.511719 207.933594 262.511719 207.785156 262.511719 207.710938 C 262.511719 208.011719 262.511719 208.234375 262.511719 208.535156 C 262.363281 233.808594 228.6875 254.136719 187.289062 254.058594 C 146.039062 253.984375 112.664062 233.660156 112.511719 208.535156 C 112.511719 208.308594 112.511719 208.011719 112.511719 207.710938 Z M 112.511719 207.710938 " fill-opacity="1" fill-rule="nonzero"/></g><path fill="#000000" d="M 114.386719 191.359375 C 108.761719 215.960938 136.886719 238.609375 177.238281 242.058594 C 217.585938 245.511719 254.9375 228.410156 260.5625 203.808594 C 261.539062 199.683594 261.539062 195.484375 260.5625 191.359375 C 260.636719 191.660156 260.710938 191.886719 260.710938 192.183594 C 266.1875 216.785156 237.761719 239.433594 197.261719 242.660156 C 156.761719 245.960938 119.636719 228.636719 114.238281 203.960938 C 113.414062 199.984375 113.414062 196.011719 114.238281 192.109375 C 114.3125 191.886719 114.386719 191.585938 114.386719 191.359375 Z M 114.386719 191.359375 " fill-opacity="1" fill-rule="nonzero"/><path fill="#000000" d="M 120.011719 175.460938 C 108.988281 198.183594 130.289062 221.960938 167.5625 228.636719 C 204.835938 235.308594 243.988281 222.410156 255.011719 199.683594 C 258.835938 191.734375 258.835938 183.335938 255.011719 175.460938 C 255.164062 175.683594 255.238281 175.984375 255.386719 176.210938 C 266.113281 199.011719 244.4375 222.785156 207.011719 229.386719 C 169.511719 235.910156 130.363281 222.710938 119.636719 199.910156 C 115.960938 192.183594 115.960938 183.933594 119.636719 176.210938 C 119.789062 175.984375 119.9375 175.683594 120.011719 175.460938 Z M 120.011719 175.460938 " fill-opacity="1" fill-rule="nonzero"/><path fill="#000000" d="M 129.539062 160.535156 C 113.5625 180.035156 126.460938 203.734375 158.488281 213.484375 C 190.511719 223.234375 229.4375 215.359375 245.414062 195.859375 C 254.5625 184.761719 254.5625 171.636719 245.414062 160.535156 C 245.636719 160.761719 245.789062 160.984375 246.011719 161.285156 C 261.761719 180.933594 248.335938 204.710938 216.085938 214.308594 C 183.761719 223.835938 144.761719 215.660156 129.011719 196.011719 C 120.238281 185.058594 120.238281 172.234375 129.011719 161.210938 C 129.164062 160.984375 129.386719 160.761719 129.539062 160.535156 Z M 129.539062 160.535156 " fill-opacity="1" fill-rule="nonzero"/><path fill="#000000" d="M 144.011719 147.109375 C 123.460938 161.734375 126.3125 183.710938 150.3125 196.234375 C 174.3125 208.761719 210.460938 207.035156 231.011719 192.410156 C 249.3125 179.359375 249.3125 160.160156 231.011719 147.109375 C 231.3125 147.335938 231.613281 147.558594 231.914062 147.710938 C 252.238281 162.636719 248.863281 184.761719 224.335938 197.136719 C 199.8125 209.511719 163.4375 207.410156 143.113281 192.484375 C 125.414062 179.511719 125.414062 160.683594 143.113281 147.710938 C 143.414062 147.484375 143.710938 147.261719 144.011719 147.109375 Z M 144.011719 147.109375 " fill-opacity="1" fill-rule="nonzero"/><path fill="#000000" d="M 168.988281 135.484375 C 144.613281 141.710938 133.0625 158.808594 143.261719 173.660156 C 153.460938 188.511719 181.585938 195.558594 206.039062 189.335938 C 230.414062 183.109375 241.960938 166.011719 231.761719 151.160156 C 226.886719 144.035156 217.664062 138.410156 206.039062 135.484375 C 206.710938 135.636719 207.386719 135.859375 207.988281 136.011719 C 232.210938 142.910156 242.710938 160.460938 231.460938 175.234375 C 220.136719 190.011719 191.335938 196.386719 167.039062 189.484375 C 142.8125 182.585938 132.3125 165.035156 143.5625 150.261719 C 148.363281 143.960938 156.6875 138.933594 167.039062 136.011719 C 167.710938 135.785156 168.386719 135.636719 168.988281 135.484375 Z M 168.988281 135.484375 " fill-opacity="1" fill-rule="nonzero"/><g clip-path="url(#df9649dcf8)"><path fill="#000000" d="M 150.3125 156.484375 C 150.3125 143.960938 166.960938 133.835938 187.511719 133.835938 C 208.0625 133.835938 224.710938 143.960938 224.710938 156.484375 C 224.710938 169.011719 208.0625 179.136719 187.511719 179.136719 C 166.960938 179.136719 150.3125 169.011719 150.3125 156.484375 Z M 149.710938 156.785156 C 149.710938 169.460938 166.585938 179.808594 187.511719 179.808594 C 208.363281 179.808594 225.3125 169.535156 225.3125 156.785156 C 225.3125 144.109375 208.4375 133.761719 187.511719 133.761719 C 166.664062 133.761719 149.710938 144.035156 149.710938 156.785156 Z M 149.710938 156.785156 " fill-opacity="1" fill-rule="nonzero"/></g><path fill="#000000" d="M 162.164062 152.136719 C 162.164062 143.585938 173.488281 136.683594 187.511719 136.683594 C 201.539062 136.683594 212.863281 143.660156 212.863281 152.136719 C 212.863281 160.683594 201.539062 167.585938 187.511719 167.585938 C 173.488281 167.585938 162.164062 160.683594 162.164062 152.136719 Z M 161.5625 152.359375 C 161.5625 161.058594 173.1875 168.183594 187.511719 168.183594 C 201.835938 168.183594 213.460938 161.136719 213.460938 152.359375 C 213.460938 143.660156 201.835938 136.535156 187.511719 136.535156 C 173.1875 136.535156 161.5625 143.585938 161.5625 152.359375 Z M 161.5625 152.359375 " fill-opacity="1" fill-rule="nonzero"/><path fill="#000000" d="M 174.835938 149.511719 C 174.835938 145.234375 180.539062 141.785156 187.511719 141.785156 C 194.5625 141.785156 200.1875 145.234375 200.1875 149.511719 C 200.1875 153.785156 194.488281 157.234375 187.511719 157.234375 C 180.460938 157.234375 174.835938 153.785156 174.835938 149.511719 Z M 174.164062 149.585938 C 174.164062 154.085938 180.164062 157.683594 187.511719 157.683594 C 194.863281 157.683594 200.863281 154.085938 200.863281 149.585938 C 200.863281 145.085938 194.863281 141.484375 187.511719 141.484375 C 180.164062 141.484375 174.164062 145.085938 174.164062 149.585938 Z M 174.164062 149.585938 " fill-opacity="1" fill-rule="nonzero"/><g fill="#000000" fill-opacity="0.4"><g transform="translate(127.69138, 140.034285)"><g><path d="M 27.53125 -17.5625 L 20.5625 -13.125 L 17.296875 -14.828125 L 6.953125 -8.234375 L 7.140625 -4.5625 L 0.171875 -0.109375 L 0.203125 -23.1875 L 6.59375 -27.265625 Z M 12.40625 -17.40625 L 6.390625 -20.546875 L 6.703125 -13.765625 Z M 12.40625 -17.40625 "/></g></g></g><g fill="#000000" fill-opacity="0.4"><g transform="translate(154.39183, 124.171055)"><g><path d="M 9.765625 -3.359375 L 2.046875 -0.703125 L -4.265625 -19.078125 L 3.453125 -21.734375 Z M 9.765625 -3.359375 "/></g></g></g><g fill="#000000" fill-opacity="0.4"><g transform="translate(165.515359, 120.45536)"><g/></g></g><g fill="#000000" fill-opacity="0.4"><g transform="translate(170.638216, 117.901257)"><g><path d="M 28.703125 -0.9375 L 20.546875 -0.671875 L 20.296875 -8.515625 L 10.078125 -8.1875 L 10.328125 -0.34375 L 2.171875 -0.078125 L 1.53125 -19.5 L 9.6875 -19.765625 L 9.953125 -11.921875 L 20.171875 -12.25 L 19.90625 -20.09375 L 28.0625 -20.359375 Z M 28.703125 -0.9375 "/></g></g></g><g fill="#000000" fill-opacity="0.4"><g transform="translate(199.421377, 116.910459)"><g><path d="M 13.0625 4.078125 C 8.5 2.804688 5.539062 0.960938 4.1875 -1.453125 C 3.070312 -3.484375 2.9375 -6.003906 3.78125 -9.015625 L 6.390625 -18.390625 L 14.25 -16.203125 L 11.640625 -6.828125 C 11.273438 -5.523438 11.203125 -4.429688 11.421875 -3.546875 C 11.765625 -2.285156 12.773438 -1.421875 14.453125 -0.953125 C 16.148438 -0.484375 17.460938 -0.703125 18.390625 -1.609375 C 19.054688 -2.265625 19.570312 -3.234375 19.9375 -4.515625 L 22.546875 -13.890625 L 30.40625 -11.703125 L 27.765625 -2.21875 C 26.941406 0.71875 25.523438 2.765625 23.515625 3.921875 C 21.117188 5.296875 17.632812 5.347656 13.0625 4.078125 Z M 13.0625 4.078125 "/></g></g></g><g fill="#000000" fill-opacity="0.4"><g transform="translate(223.995053, 123.129399)"><g><path d="M 13.5 8.796875 L 1.8125 1.1875 L 12.421875 -15.09375 L 24.359375 -7.328125 C 26.484375 -5.953125 28.164062 -4.71875 29.40625 -3.625 C 30.644531 -2.539062 31.5 -1.550781 31.96875 -0.65625 C 32.445312 0.238281 32.609375 1.085938 32.453125 1.890625 C 32.304688 2.703125 31.945312 3.550781 31.375 4.4375 C 30.894531 5.113281 30.328125 5.5625 29.671875 5.78125 C 29.015625 6.007812 28.367188 6.078125 27.734375 5.984375 C 27.109375 5.898438 26.617188 5.742188 26.265625 5.515625 C 26.617188 5.742188 26.988281 6.082031 27.375 6.53125 C 27.757812 6.976562 28.09375 7.484375 28.375 8.046875 C 28.65625 8.609375 28.816406 9.175781 28.859375 9.75 C 28.910156 10.320312 28.78125 10.847656 28.46875 11.328125 C 28.050781 11.960938 27.597656 12.492188 27.109375 12.921875 C 26.617188 13.359375 26.019531 13.632812 25.3125 13.75 C 24.601562 13.875 23.722656 13.800781 22.671875 13.53125 C 21.628906 13.257812 20.359375 12.738281 18.859375 11.96875 C 17.367188 11.207031 15.582031 10.148438 13.5 8.796875 Z M 19.328125 -0.984375 C 20.316406 -0.335938 21.117188 0.113281 21.734375 0.375 C 22.359375 0.632812 22.835938 0.726562 23.171875 0.65625 C 23.515625 0.59375 23.789062 0.40625 24 0.09375 C 24.195312 -0.21875 24.253906 -0.539062 24.171875 -0.875 C 24.097656 -1.21875 23.816406 -1.613281 23.328125 -2.0625 C 22.835938 -2.519531 22.097656 -3.070312 21.109375 -3.71875 L 16.640625 -6.625 L 14.859375 -3.890625 Z M 15.75 4.53125 C 16.769531 5.195312 17.609375 5.707031 18.265625 6.0625 C 18.929688 6.425781 19.472656 6.609375 19.890625 6.609375 C 20.316406 6.617188 20.664062 6.410156 20.9375 5.984375 C 21.21875 5.554688 21.269531 5.148438 21.09375 4.765625 C 20.925781 4.378906 20.539062 3.953125 19.9375 3.484375 C 19.34375 3.023438 18.535156 2.460938 17.515625 1.796875 L 13.046875 -1.109375 L 11.28125 1.625 Z M 15.75 4.53125 "/></g></g></g><g fill="#000000" fill-opacity="1"><g transform="translate(126.464433, 138.80734)"><g><path d="M 27.53125 -17.5625 L 20.5625 -13.125 L 17.296875 -14.828125 L 6.953125 -8.234375 L 7.140625 -4.5625 L 0.171875 -0.109375 L 0.203125 -23.1875 L 6.59375 -27.265625 Z M 12.40625 -17.40625 L 6.390625 -20.546875 L 6.703125 -13.765625 Z M 12.40625 -17.40625 "/></g></g></g><g fill="#000000" fill-opacity="1"><g transform="translate(153.16489, 122.944122)"><g><path d="M 9.765625 -3.359375 L 2.046875 -0.703125 L -4.265625 -19.078125 L 3.453125 -21.734375 Z M 9.765625 -3.359375 "/></g></g></g><g fill="#000000" fill-opacity="1"><g transform="translate(164.288422, 119.22842)"><g/></g></g><g fill="#000000" fill-opacity="1"><g transform="translate(169.411261, 116.674312)"><g><path d="M 28.703125 -0.9375 L 20.546875 -0.671875 L 20.296875 -8.515625 L 10.078125 -8.1875 L 10.328125 -0.34375 L 2.171875 -0.078125 L 1.53125 -19.5 L 9.6875 -19.765625 L 9.953125 -11.921875 L 20.171875 -12.25 L 19.90625 -20.09375 L 28.0625 -20.359375 Z M 28.703125 -0.9375 "/></g></g></g><g fill="#000000" fill-opacity="1"><g transform="translate(198.194437, 115.683512)"><g><path d="M 13.0625 4.078125 C 8.5 2.804688 5.539062 0.960938 4.1875 -1.453125 C 3.070312 -3.484375 2.9375 -6.003906 3.78125 -9.015625 L 6.390625 -18.390625 L 14.25 -16.203125 L 11.640625 -6.828125 C 11.273438 -5.523438 11.203125 -4.429688 11.421875 -3.546875 C 11.765625 -2.285156 12.773438 -1.421875 14.453125 -0.953125 C 16.148438 -0.484375 17.460938 -0.703125 18.390625 -1.609375 C 19.054688 -2.265625 19.570312 -3.234375 19.9375 -4.515625 L 22.546875 -13.890625 L 30.40625 -11.703125 L 27.765625 -2.21875 C 26.941406 0.71875 25.523438 2.765625 23.515625 3.921875 C 21.117188 5.296875 17.632812 5.347656 13.0625 4.078125 Z M 13.0625 4.078125 "/></g></g></g><g fill="#000000" fill-opacity="1"><g transform="translate(222.768129, 121.902454)"><g><path d="M 13.5 8.796875 L 1.8125 1.1875 L 12.421875 -15.09375 L 24.359375 -7.328125 C 26.484375 -5.953125 28.164062 -4.71875 29.40625 -3.625 C 30.644531 -2.539062 31.5 -1.550781 31.96875 -0.65625 C 32.445312 0.238281 32.609375 1.085938 32.453125 1.890625 C 32.304688 2.703125 31.945312 3.550781 31.375 4.4375 C 30.894531 5.113281 30.328125 5.5625 29.671875 5.78125 C 29.015625 6.007812 28.367188 6.078125 27.734375 5.984375 C 27.109375 5.898438 26.617188 5.742188 26.265625 5.515625 C 26.617188 5.742188 26.988281 6.082031 27.375 6.53125 C 27.757812 6.976562 28.09375 7.484375 28.375 8.046875 C 28.65625 8.609375 28.816406 9.175781 28.859375 9.75 C 28.910156 10.320312 28.78125 10.847656 28.46875 11.328125 C 28.050781 11.960938 27.597656 12.492188 27.109375 12.921875 C 26.617188 13.359375 26.019531 13.632812 25.3125 13.75 C 24.601562 13.875 23.722656 13.800781 22.671875 13.53125 C 21.628906 13.257812 20.359375 12.738281 18.859375 11.96875 C 17.367188 11.207031 15.582031 10.148438 13.5 8.796875 Z M 19.328125 -0.984375 C 20.316406 -0.335938 21.117188 0.113281 21.734375 0.375 C 22.359375 0.632812 22.835938 0.726562 23.171875 0.65625 C 23.515625 0.59375 23.789062 0.40625 24 0.09375 C 24.195312 -0.21875 24.253906 -0.539062 24.171875 -0.875 C 24.097656 -1.21875 23.816406 -1.613281 23.328125 -2.0625 C 22.835938 -2.519531 22.097656 -3.070312 21.109375 -3.71875 L 16.640625 -6.625 L 14.859375 -3.890625 Z M 15.75 4.53125 C 16.769531 5.195312 17.609375 5.707031 18.265625 6.0625 C 18.929688 6.425781 19.472656 6.609375 19.890625 6.609375 C 20.316406 6.617188 20.664062 6.410156 20.9375 5.984375 C 21.21875 5.554688 21.269531 5.148438 21.09375 4.765625 C 20.925781 4.378906 20.539062 3.953125 19.9375 3.484375 C 19.34375 3.023438 18.535156 2.460938 17.515625 1.796875 L 13.046875 -1.109375 L 11.28125 1.625 Z M 15.75 4.53125 "/></g></g></g></svg>